# xmcd
#
# Track frame offsets:
#	150
#	24782
#	54571
#	91389
#	118596
#	135453
#
# Disc length: 2335 seconds
#
# Revision: 1
# Processed by: cddbd v1.5.2PL0 Copyright (c) Steve Scherf et al.
# Submitted via: audiograbber 1.83.01
#
DISCID=42091d06
DTITLE=Charles, Ray - Soul Meeting with Milt Jackson
DYEAR=1961
DGENRE=Soul
TTITLE0=Hallelujah I Love Her
TTITLE1=Blue Genius
TTITLE2=X-Ray Blues
TTITLE3=Soul Meeting
TTITLE4=Love on My Mind
TTITLE5=Bags of Blues
EXTD=
EXTT0=
EXTT1=
EXTT2=
EXTT3=
EXTT4=
EXTT5=
PLAYORDER=
